<svg viewBox="-1.92 -1.92 19.84 19.84" fill="none" xmlns="http://www.w3.org/2000/svg" stroke="#000000" stroke-width="0.00016"><g id="SVGRepo_bgCarrier" stroke-width="0"></g><g id="SVGRepo_tracerCarrier" stroke-linecap="round" stroke-linejoin="round" stroke="#c559bc" stroke-width="2.048"> <path fill-rule="evenodd" clip-rule="evenodd" d="M12.4722 10C13.4223 8.93849 14 7.53671 14 6C14 2.68629 11.3137 0 8 0C4.68629 0 2 2.68629 2 6C2 7.53671 2.57771 8.93849 3.52779 10H12.4722ZM8 5L10 3L12 5L10 7L8 5Z" fill="#000000"></path> <path d="M15 15V14L13 12H3L1 14V15H15Z" fill="#000000"></path> </g><g id="SVGRepo_iconCarrier"> <path fill-rule="evenodd" clip-rule="evenodd" d="M12.4722 10C13.4223 8.93849 14 7.53671 14 6C14 2.68629 11.3137 0 8 0C4.68629 0 2 2.68629 2 6C2 7.53671 2.57771 8.93849 3.52779 10H12.4722ZM8 5L10 3L12 5L10 7L8 5Z" fill="#000000"></path> <path d="M15 15V14L13 12H3L1 14V15H15Z" fill="#000000"></path> </g></svg>